<svg width="26" height="24" viewBox="0 0 26 24" fill="none" xmlns="http://www.w3.org/2000/svg">
<g id="Icon" filter="url(#filter0_d_1014_1827)">
<path id="~" d="M14.4474 11.7263C14.5068 11.9509 14.6107 12.1895 14.7591 12.4421C14.9076 12.6667 15.1451 12.7789 15.4717 12.7789C15.7092 12.7789 16.0061 12.6526 16.3624 12.4L21.3416 8.93331C21.7729 8.63301 22.3631 8.71783 22.6924 9.12745L23.1403 9.68472C23.499 10.1309 23.4106 10.7866 22.9466 11.1218L18.322 14.4632C17.9063 14.7719 17.461 15.0386 16.9859 15.2632C16.5406 15.4877 15.9764 15.6 15.2936 15.6C14.1356 15.6 13.3043 15.3193 12.7995 14.7579C12.2948 14.1684 11.8791 13.3825 11.5525 12.4C11.4931 12.1474 11.3892 11.8947 11.2408 11.6421C11.122 11.3614 10.8845 11.221 10.5282 11.221C10.261 11.221 9.91954 11.3754 9.50387 11.6842L4.65856 15.0653C4.22723 15.3663 3.63645 15.2817 3.30692 14.8718L2.85956 14.3153C2.50089 13.8691 2.58928 13.2134 3.05331 12.8782L7.67789 9.53684C8.12325 9.19999 8.58346 8.93333 9.05851 8.73684C9.53356 8.51227 10.0828 8.39999 10.7063 8.39999C11.8346 8.39999 12.6511 8.70877 13.1558 9.32631C13.6903 9.91578 14.1208 10.7158 14.4474 11.7263Z" fill="#000e51"/>
</g>
<defs>
<filter id="filter0_d_1014_1827" x="-1" y="0" width="28" height="28" filterUnits="userSpaceOnUse" color-interpolation-filters="sRGB">
<feFlood flood-opacity="0" result="BackgroundImageFix"/>
<feColorMatrix in="SourceAlpha" type="matrix" values="0 0 0 0 0 0 0 0 0 0 0 0 0 0 0 0 0 0 127 0" result="hardAlpha"/>
<feOffset dy="2"/>
<feGaussianBlur stdDeviation="1"/>
<feColorMatrix type="matrix" values="0 0 0 0 0.28 0 0 0 0 0.36 0 0 0 0 0.24 0 0 0 1 0"/>
<feBlend mode="normal" in2="BackgroundImageFix" result="effect1_dropShadow_1014_1827"/>
<feBlend mode="normal" in="SourceGraphic" in2="effect1_dropShadow_1014_1827" result="shape"/>
</filter>
</defs>
</svg>
