<svg width="24" height="24" viewBox="0 0 24 24" fill="none" xmlns="http://www.w3.org/2000/svg">
<g id="Icon" clip-path="url(#clip0_501_8237)">
<path id="Vector" d="M11.6505 8.02188C11.7672 8.00938 11.8839 8.00521 12.0005 8.00521C14.209 8.00521 16.0007 9.75938 16.0007 12.0052C16.0007 14.2135 14.209 16.0052 12.0005 16.0052C9.75459 16.0052 8.00035 14.2135 8.00035 12.0052C8.00035 11.8885 8.00452 11.7719 8.01702 11.6552C8.40453 11.8427 8.85455 12.0052 9.33374 12.0052C10.8046 12.0052 12.0005 10.8094 12.0005 9.33854C12.0005 8.85938 11.838 8.40938 11.6505 8.02188ZM20.0259 6.03021C21.976 7.83854 23.2802 9.96771 23.8969 11.4927C24.0344 11.8219 24.0344 12.1885 23.8969 12.5177C23.2802 14.0052 21.976 16.1344 20.0259 17.9802C18.0633 19.8052 15.3673 21.3386 12.0005 21.3386C8.63371 21.3386 5.93776 19.8052 3.97601 17.9802C2.02592 16.1344 0.722535 14.0052 0.10255 12.5177C0.0348541 12.3553 0 12.1811 0 12.0052C0 11.8293 0.0348541 11.6551 0.10255 11.4927C0.722535 9.96771 2.02592 7.83854 3.97601 6.03021C5.93776 4.20688 8.63371 2.67188 12.0005 2.67188C15.3673 2.67188 18.0633 4.20688 20.0259 6.03021ZM12.0005 6.00521C8.68788 6.00521 6.00026 8.69271 6.00026 12.0052C6.00026 15.3177 8.68788 18.0052 12.0005 18.0052C15.3132 18.0052 18.0008 15.3177 18.0008 12.0052C18.0008 8.69271 15.3132 6.00521 12.0005 6.00521Z" fill="#0064fe"/>
</g>
<defs>
<clipPath id="clip0_501_8237">
<rect width="24" height="24" fill="white"/>
</clipPath>
</defs>
</svg>
