<svg width="24" height="24" viewBox="0 0 24 24" fill="none" xmlns="http://www.w3.org/2000/svg">
<g id="Icon">
<path id="Vector" d="M7.125 12C7.125 13.4484 5.94984 14.625 4.5 14.625C3.05016 14.625 1.875 13.4484 1.875 12C1.875 10.5516 3.05016 9.375 4.5 9.375C5.94984 9.375 7.125 10.5516 7.125 12ZM14.625 12C14.625 13.4484 13.4484 14.625 12 14.625C10.5516 14.625 9.375 13.4484 9.375 12C9.375 10.5516 10.5516 9.375 12 9.375C13.4484 9.375 14.625 10.5516 14.625 12ZM16.875 12C16.875 10.5516 18.0516 9.375 19.5 9.375C20.9484 9.375 22.125 10.5516 22.125 12C22.125 13.4484 20.9484 14.625 19.5 14.625C18.0516 14.625 16.875 13.4484 16.875 12Z" fill="#3d4450"/>
</g>
</svg>
