<svg xmlns="http://www.w3.org/2000/svg" width="60" height="36" viewBox="0 0 105 36" fill="none">
<path d="M6.34713 13.64C6.34713 13.0877 6.79484 12.64 7.34713 12.64L19.7871 12.64C22.0271 12.64 23.6485 13.152 24.6511 14.176C25.6751 15.1786 26.1871 16.8 26.1871 19.04L26.1871 22.24C26.1871 24.48 25.6751 26.112 24.6511 27.136C23.6485 28.1386 22.0271 28.64 19.7871 28.64H13.1071C12.5548 28.64 12.1071 29.0877 12.1071 29.64L12.1071 34.04C12.1071 34.5923 11.6594 35.04 11.1071 35.04H7.34713C6.79484 35.04 6.34712 34.5923 6.34712 34.04L6.34713 13.64ZM20.4271 19.04C20.4271 17.76 19.7871 17.12 18.5071 17.12H13.1071C12.5548 17.12 12.1071 17.5677 12.1071 18.12L12.1071 23.16C12.1071 23.7122 12.5548 24.16 13.1071 24.16H18.5071C19.7871 24.16 20.4271 23.52 20.4271 22.24V19.04Z" fill="#000e51"/>
<path d="M46.0259 30.24C46.0259 31.84 45.5672 33.0986 44.6499 34.016C43.7539 34.912 42.5059 35.36 40.9059 35.36H33.5459C31.9459 35.36 30.6872 34.912 29.7699 34.016C28.8739 33.0986 28.4259 31.84 28.4259 30.24V22.88C28.4259 21.28 28.8739 20.032 29.7699 19.136C30.6872 18.2186 31.9459 17.76 33.5459 17.76H40.9059C42.5059 17.76 43.7539 18.2186 44.6499 19.136C45.5672 20.032 46.0259 21.28 46.0259 22.88V30.24ZM40.4259 23.36C40.4259 22.5066 39.9992 22.08 39.1459 22.08L35.3059 22.08C34.4525 22.08 34.0259 22.5066 34.0259 23.36V29.76C34.0259 30.6133 34.4525 31.04 35.3059 31.04H39.1459C39.9992 31.04 40.4259 30.6133 40.4259 29.76V23.36Z" fill="#000e51"/>
<path d="M55.5021 28.32C54.9498 28.32 54.5021 28.7677 54.5021 29.32V34.04C54.5021 34.5923 54.0544 35.04 53.5021 35.04H49.9021C49.3498 35.04 48.9021 34.5923 48.9021 34.04L48.9021 13.64C48.9021 13.0877 49.3498 12.64 49.9021 12.64L53.5021 12.64C54.0544 12.64 54.5021 13.0877 54.5021 13.64L54.5021 23C54.5021 23.5523 54.9498 24 55.5021 24H56.4933C56.846 24 57.1726 23.8142 57.3528 23.511L60.2914 18.5689C60.4717 18.2658 60.7983 18.08 61.1509 18.08L64.7537 18.08C65.5271 18.08 66.0078 18.9204 65.6156 19.587L61.9894 25.7516C61.8112 26.0545 61.8051 26.4288 61.9735 26.7374L65.6955 33.5611C66.059 34.2275 65.5766 35.04 64.8176 35.04H61.1746C60.8093 35.04 60.473 34.8407 60.2975 34.5203L57.1867 28.8397C57.0112 28.5192 56.675 28.32 56.3096 28.32L55.5021 28.32Z" fill="#000e51"/>
<path d="M74.3371 21.76C73.4838 21.76 73.0571 22.1866 73.0571 23.04V23.8C73.0571 24.3523 73.5048 24.8 74.0571 24.8L77.4971 24.8C78.0494 24.8 78.4971 24.3523 78.4971 23.8V23.04C78.4971 22.1866 78.0705 21.76 77.2171 21.76H74.3371ZM83.4571 33.8183C83.4571 34.3306 83.0696 34.7605 82.5597 34.8102C78.7956 35.1767 75.3614 35.36 72.2571 35.36C70.8065 35.36 69.6438 34.9226 68.7691 34.048C67.8945 33.1733 67.4571 32.0106 67.4571 30.56V22.88C67.4571 21.28 67.9051 20.032 68.8011 19.136C69.7185 18.2186 70.9771 17.76 72.5771 17.76L78.9771 17.76C80.5771 17.76 81.8251 18.2186 82.7211 19.136C83.6385 20.032 84.0971 21.28 84.0971 22.88V27.8C84.0971 28.3523 83.6494 28.8 83.0971 28.8L74.0571 28.8C73.5048 28.8 73.0571 29.2477 73.0571 29.8V30.08C73.0571 30.4 73.1638 30.6666 73.3771 30.88C73.5905 31.0933 73.8571 31.2 74.1771 31.2C76.0986 31.2 78.8324 31.0675 82.3784 30.8027C82.9599 30.7592 83.4571 31.2184 83.4571 31.8016V33.8183Z" fill="#000e51"/>
<path d="M96.7246 22.72C95.5688 22.72 94.3814 22.9567 93.1624 23.43C92.795 23.5727 92.5646 23.9337 92.5646 24.3279V34.04C92.5646 34.5923 92.1169 35.04 91.5646 35.04L87.9646 35.04C87.4123 35.04 86.9646 34.5923 86.9646 34.04V19.08C86.9646 18.5277 87.4123 18.08 87.9646 18.08H91.2496C91.638 18.08 91.9682 18.3633 92.0273 18.7471C92.1215 19.3599 92.8612 19.6332 93.3735 19.2838C94.863 18.2679 96.4067 17.76 98.0046 17.76H98.4446C98.9969 17.76 99.4446 18.2077 99.4446 18.76V21.72C99.4446 22.2723 98.9969 22.72 98.4446 22.72L96.7246 22.72Z" fill="#000e51"/>
<path fill-rule="evenodd" clip-rule="evenodd" d="M10.08 0.24H1C0.447715 0.24 0 0.687715 0 1.24V16.04C0 16.5923 0.447715 17.04 1 17.04H3.32C3.87229 17.04 4.32 16.5923 4.32 16.04V12.277C4.32 12.2566 4.33656 12.24 4.35699 12.24C4.37459 12.24 4.38973 12.2275 4.39349 12.2104C4.59008 11.3123 5.39014 10.64 6.34723 10.64L13.5799 10.64C13.9137 10.64 14.2337 10.4769 14.3761 10.1749C14.712 9.46275 14.88 8.55111 14.88 7.44V5.04C14.88 3.36 14.496 2.144 13.728 1.392C12.976 0.624 11.76 0.24 10.08 0.24ZM9.12 3.6C10.08 3.6 10.56 4.08 10.56 5.04V7.44C10.56 8.4 10.08 8.88 9.12 8.88H5.32C4.76772 8.88 4.32 8.43229 4.32 7.88V4.6C4.32 4.04772 4.76772 3.6 5.32 3.6H9.12Z" fill="#000e51"/>
<path fill-rule="evenodd" clip-rule="evenodd" d="M28.8848 17.2481C28.8593 17.2684 28.8279 17.28 28.7953 17.28C28.3877 17.28 28.0473 16.9759 27.97 16.5757C27.6834 15.0912 27.0911 13.7731 26.0655 12.7617C25.7781 12.4703 25.4659 12.2138 25.1322 11.9894C24.7525 11.7341 24.5177 11.274 24.7159 10.8616C24.8726 10.5354 25.0804 10.2429 25.3393 9.984C25.9953 9.328 26.8673 9 27.9553 9H31.9153C32.4455 9 32.8753 8.57019 32.8753 8.04C32.8753 7.8 32.7953 7.6 32.6353 7.44C32.4753 7.28 32.2753 7.2 32.0353 7.2C30.9953 7.2 29.8433 7.248 28.5793 7.344C27.8414 7.40076 27.1874 7.44913 26.6173 7.48911C26.0419 7.52947 25.5553 7.07237 25.5553 6.49555V5.45667C25.5553 4.94643 25.9396 4.5174 26.4473 4.46658C29.0219 4.20886 31.3646 4.08 33.4753 4.08C34.5633 4.08 35.4353 4.408 36.0913 5.064C36.7473 5.72 37.0753 6.592 37.0753 7.68V14.76C37.0753 15.3123 36.6276 15.76 36.0753 15.76L33.546 15.76C31.7935 15.76 30.1826 16.2101 28.8848 17.2481ZM32.8753 12.8252C32.8753 13.19 32.6364 13.5142 32.2827 13.6035C31.4464 13.8145 30.6839 13.92 29.9953 13.92H29.3953C29.1553 13.92 28.9553 13.84 28.7953 13.68C28.6353 13.52 28.5553 13.32 28.5553 13.08V12.84C28.5553 12.6 28.6353 12.4 28.7953 12.24C28.9553 12.08 29.1553 12 29.3953 12H32.0501C32.5059 12 32.8753 12.3694 32.8753 12.8252Z" fill="#000e51"/>
<path d="M43.4288 14.76C43.4288 15.4356 42.7681 15.9208 42.0981 15.8343C41.7097 15.7841 41.3116 15.76 40.906 15.76H40.2288C39.6765 15.76 39.2288 15.3123 39.2288 14.76V5.32C39.2288 4.76772 39.6765 4.32 40.2288 4.32H42.5135C42.7666 4.32 42.9845 4.49862 43.0341 4.74678C43.108 5.11622 43.5334 5.29374 43.8642 5.11343C44.3991 4.82184 44.942 4.59736 45.4928 4.44C46.2928 4.2 46.9648 4.08 47.5088 4.08H48.5888C49.6768 4.08 50.5488 4.408 51.2048 5.064C51.8608 5.72 52.1888 6.592 52.1888 7.68V9.91171C52.1888 10.464 51.9932 10.64 51.4409 10.64H48.5C48.0668 10.64 47.9888 10.4332 47.9888 10V8.4C47.9888 8.16 47.9088 7.96 47.7488 7.8C47.5888 7.64 47.3888 7.56 47.1488 7.56H46.3088C45.655 7.56 44.9348 7.65508 44.148 7.84525C43.7182 7.94911 43.4288 8.34298 43.4288 8.7851V14.76Z" fill="#000e51"/>
<path d="M64.1059 16.08C63.5537 16.08 63.1059 15.6323 63.1059 15.08V8.4C63.1059 8.16 63.0259 7.96 62.8659 7.8C62.7059 7.64 62.5059 7.56 62.2659 7.56H61.4259C60.7722 7.56 60.052 7.65508 59.2651 7.84525C58.8354 7.94911 58.5459 8.34298 58.5459 8.7851V10.3797C58.5459 10.8155 58.3425 11.108 57.9896 11.108H55.0517C54.5807 11.108 54.3459 10.8314 54.3459 10.468V5.32C54.3459 4.76771 54.7937 4.32 55.3459 4.32H57.6307C57.8838 4.32 58.1017 4.49862 58.1513 4.74678C58.2252 5.11622 58.6505 5.29374 58.9814 5.11343C59.5163 4.82184 60.0592 4.59736 60.6099 4.44C61.4099 4.2 62.0819 4.08 62.6259 4.08H63.7059C64.7939 4.08 65.6659 4.408 66.3219 5.064C66.9779 5.72 67.3059 6.592 67.3059 7.68V15.4215C67.3059 15.8113 66.8921 16.08 66.5022 16.08L64.1059 16.08Z" fill="#000e51"/>
<path d="M74.7431 14.76C74.7431 15.3123 74.2954 15.76 73.7431 15.76H72.5772C72.3125 15.76 72.0509 15.7703 71.7932 15.7913C71.1492 15.8438 70.5431 15.3668 70.5431 14.7207V8.94C70.5431 8.44294 70.1402 8.04 69.6431 8.04C69.1461 8.04 68.7431 7.63706 68.7431 7.14V5.8C68.7431 5.24772 69.1908 4.8 69.7431 4.8H73.7431C74.2954 4.8 74.7431 5.24771 74.7431 5.8V14.76Z" fill="#000e51"/>
<path d="M81.3506 14.7456C81.3506 15.412 80.7072 15.8948 80.045 15.8191C79.6961 15.7793 79.3396 15.76 78.9772 15.76H78.1506C77.5984 15.76 77.1506 15.3123 77.1506 14.76V5.32C77.1506 4.76771 77.5984 4.32 78.1506 4.32H80.4354C80.6885 4.32 80.9064 4.49862 80.956 4.74678C81.0299 5.11622 81.4552 5.29374 81.786 5.11343C82.321 4.82184 82.8639 4.59736 83.4146 4.44C84.2146 4.2 84.8866 4.08 85.4306 4.08H86.5106C87.5986 4.08 88.4706 4.408 89.1266 5.064C89.7826 5.72 90.1106 6.592 90.1106 7.68V15.08C90.1106 15.6323 89.6629 16.08 89.1106 16.08H86.9647C86.4806 16.08 85.9106 15.7538 85.9106 15.2697V8.4C85.9106 8.16 85.8306 7.96 85.6706 7.8C85.5106 7.64 85.3106 7.56 85.0706 7.56H84.2306C83.5769 7.56 82.8567 7.65508 82.0698 7.84525C81.6401 7.94911 81.3506 8.34298 81.3506 8.7851V14.7456Z" fill="#000e51"/>
<path fill-rule="evenodd" clip-rule="evenodd" d="M100.538 16.082C100.536 16.0825 100.534 16.0821 100.532 16.0809C100.219 15.8779 99.8455 15.76 99.4447 15.76H98.0047C96.9009 15.76 95.8365 15.9505 94.8143 16.3124C94.6154 16.3828 94.3985 16.4012 94.2001 16.3296C93.7465 16.1658 93.3504 15.9146 93.0118 15.576C92.3558 14.92 92.0278 14.048 92.0278 12.96V8.16C92.0278 6.96 92.3638 6.024 93.0358 5.352C93.7238 4.664 94.6678 4.32 95.8678 4.32H103.748C104.3 4.32 104.748 4.76772 104.748 5.32V17.76C104.748 18.848 104.42 19.72 103.764 20.376C103.403 20.7371 102.976 20.9988 102.484 21.1611C101.938 21.3413 101.445 20.8669 101.445 20.2919V17.76C101.445 17.0644 101.09 16.4517 100.551 16.0934C100.549 16.0922 100.548 16.0901 100.548 16.088C100.548 16.0838 100.544 16.0808 100.54 16.0816L100.538 16.082ZM100.548 12.2402C100.548 12.7258 100.199 13.1445 99.717 13.202C99.0576 13.2807 98.3745 13.32 97.6678 13.32H97.0678C96.8278 13.32 96.6278 13.24 96.4678 13.08C96.3078 12.92 96.2278 12.72 96.2278 12.48V8.52C96.2278 7.88 96.5478 7.56 97.1878 7.56H99.5478C100.1 7.56 100.548 8.00772 100.548 8.56V12.2402Z" fill="#000e51"/>
<path d="M20.9991 9.60215C20.9991 10.1868 20.4992 10.645 19.9145 10.6405C19.8722 10.6401 19.8297 10.64 19.7872 10.64L17.7991 10.64C17.2468 10.64 16.7991 10.1923 16.7991 9.63998V1.24C16.7991 0.687717 17.2468 0.24 17.7991 0.24H19.9991C20.5514 0.24 20.9991 0.687715 20.9991 1.24V9.60215Z" fill="#000e51"/>
<path d="M74.7431 1C74.7431 0.447715 74.2954 0 73.7431 0H71.5431C70.9908 0 70.5431 0.447715 70.5431 1V2.36C70.5431 2.91228 70.9908 3.36 71.5431 3.36H73.7431C74.2954 3.36 74.7431 2.91228 74.7431 2.36V1Z" fill="#000e51"/>
</svg>