<svg xmlns:dc="http://purl.org/dc/elements/1.1/" xmlns:cc="http://creativecommons.org/ns#"
    xmlns:rdf="http://www.w3.org/1999/02/22-rdf-syntax-ns#" xmlns:svg="http://www.w3.org/2000/svg"
    xmlns="http://www.w3.org/2000/svg" xmlns:sodipodi="http://sodipodi.sourceforge.net/DTD/sodipodi-0.dtd"
    xmlns:inkscape="http://www.inkscape.org/namespaces/inkscape" version="1.1" viewBox="0 0 100 125"
    stroke-miterlimit="10" style="" x="0px" y="0px" fill="none" stroke="none">
    <clipPath>
        <path d="M 0,0 H 415.74802 V 415.74802 H 0 Z" style="" clip-rule="nonzero" />
    </clipPath>
    <path
        style="color:#000000;font-style:normal;font-variant:normal;font-weight:normal;font-stretch:normal;font-size:medium;line-height:normal;font-family:sans-serif;font-variant-ligatures:normal;font-variant-position:normal;font-variant-caps:normal;font-variant-numeric:normal;font-variant-alternates:normal;font-feature-settings:normal;text-indent:0;text-align:start;text-decoration:none;text-decoration-line:none;text-decoration-style:solid;text-decoration-color:#000000;letter-spacing:normal;word-spacing:normal;text-transform:none;writing-mode:lr-tb;direction:ltr;text-orientation:mixed;dominant-baseline:auto;baseline-shift:baseline;text-anchor:start;white-space:normal;shape-padding:0;clip-rule:nonzero;display:inline;overflow:visible;visibility:visible;opacity:1;isolation:auto;mix-blend-mode:normal;color-interpolation:sRGB;color-interpolation-filters:linearRGB;solid-color:#000000;solid-opacity:1;vector-effect:none;fill:#000000;fill-opacity:1;fill-rule:evenodd;stroke:none;stroke-width:5.86133909;stroke-linecap:butt;stroke-linejoin:round;stroke-miterlimit:10;stroke-dasharray:none;stroke-dashoffset:0;stroke-opacity:1;color-rendering:auto;image-rendering:auto;shape-rendering:auto;text-rendering:auto;enable-background:accumulate"
        d="m 45.73942,1.644085 c -0.259357,-0.00235 -0.518948,0.00481 -0.778459,0.021471 -0.692049,0.044552 -1.382587,0.1571935 -2.062063,0.3391451 L 13.215854,9.9538556 C 7.5874279,11.461045 4.2035669,17.321959 5.7117342,22.950115 L 17.663372,67.55267 c 0.634966,2.909158 2.474745,5.485466 5.105775,6.996116 L 43.49992,95.298147 c 4.118016,4.121362 10.885671,4.122503 15.005365,0.0028 L 91.55545,62.250917 c 1.989346,-1.989338 3.107542,-4.690654 3.108116,-7.504111 5.74e-4,-2.81345 -1.116707,-5.513959 -3.105253,-7.504118 l -12.519732,-12.5312 1.015996,-3.790689 c 0.728585,-2.717684 0.347886,-5.617019 -1.058938,-8.053619 -1.406804,-2.436591 -3.727296,-4.216276 -6.44517,-4.944073 L 57.038521,13.76894 55.898023,9.51031 C 55.16975,6.7925663 53.389142,4.4735644 50.952517,3.0665589 49.353485,2.1432027 47.554896,1.6607996 45.73942,1.6441529 Z m 0.0644,5.8627697 c 0.154586,0.00508 0.309039,0.018446 0.462211,0.038635 0.612671,0.080747 1.20953,0.2812705 1.755822,0.5967239 1.092605,0.6309143 1.887256,1.6664903 2.213747,2.8848774 L 62.333194,56.17342 c 0.688253,2.568417 -0.790014,5.130605 -3.358533,5.818412 L 29.291617,69.940986 C 26.723098,70.628793 24.1586,69.147993 23.47034,66.57959 l -1.86458,-6.96034 c -0.177437,-0.662551 0,0 -0.177437,-0.662551 L 11.372741,21.433259 c -0.688254,-2.568403 0.791435,-5.130605 3.359961,-5.818408 L 44.415754,7.6671259 C 44.872653,7.5447728 45.340051,7.491475 45.803814,7.5068547 Z M 58.791489,20.30707 71.033613,23.584039 c 1.218424,0.326272 2.254432,1.121813 2.884879,2.213742 0.630447,1.091923 0.80172,2.386336 0.475097,3.604667 l -6.583998,24.558666 z m -18.555659,10.659454 -10.228725,2.738917 0.752698,2.807602 3.438673,-0.920127 2.449856,9.144033 -3.438672,0.921557 0.752705,2.809031 10.228726,-2.738915 -0.752705,-2.809032 -3.438672,0.920127 -2.451285,-9.144033 3.440099,-0.921557 z m 37.049788,10.283097 10.125683,10.135712 c 0.891359,0.892082 1.391185,2.099584 1.390931,3.361399 -2.54e-4,1.261799 -0.499223,2.468253 -1.390931,3.359961 L 66.830802,78.68577 c 0.482586,-0.811245 0.872225,-1.693259 1.127625,-2.645896 z m -12.526898,24.089305 -2.4613,9.182667 c -0.688539,2.568325 -3.252757,4.049207 -5.821277,3.361394 l -17.094618,-4.576303 21.10855,-5.65242 c 1.636999,-0.438355 3.076347,-1.253081 4.268645,-2.315338 z M 34.591999,78.090478 54.959295,83.54542 c 2.865264,0.767276 5.788342,0.261148 8.169526,-1.157672 l -8.767685,8.767691 c -1.879789,1.879791 -4.836615,1.880545 -6.715635,0 z" />
</svg>